<?xml version="1.0" encoding="UTF-8"?>
<svg xmlns="http://www.w3.org/2000/svg" xmlns:xlink="http://www.w3.org/1999/xlink" width="432pt" height="288pt" viewBox="0 0 432 288" version="1.1">
<defs>
<clipPath id="clip1">
  <path d="M 2.492188 14.398438 L 432 14.398438 L 432 272 L 2.492188 272 Z M 2.492188 14.398438 "/>
</clipPath>
<clipPath id="clip2">
  <path d="M 2.492188 220 L 432 220 L 432 221 L 2.492188 221 Z M 2.492188 220 "/>
</clipPath>
<clipPath id="clip3">
  <path d="M 2.492188 159 L 432 159 L 432 161 L 2.492188 161 Z M 2.492188 159 "/>
</clipPath>
<clipPath id="clip4">
  <path d="M 2.492188 98 L 432 98 L 432 100 L 2.492188 100 Z M 2.492188 98 "/>
</clipPath>
<clipPath id="clip5">
  <path d="M 2.492188 38 L 432 38 L 432 39 L 2.492188 39 Z M 2.492188 38 "/>
</clipPath>
<clipPath id="clip6">
  <path d="M 71 14.398438 L 73 14.398438 L 73 272 L 71 272 Z M 71 14.398438 "/>
</clipPath>
<clipPath id="clip7">
  <path d="M 173 14.398438 L 175 14.398438 L 175 272 L 173 272 Z M 173 14.398438 "/>
</clipPath>
<clipPath id="clip8">
  <path d="M 275 14.398438 L 277 14.398438 L 277 272 L 275 272 Z M 275 14.398438 "/>
</clipPath>
<clipPath id="clip9">
  <path d="M 377 14.398438 L 379 14.398438 L 379 272 L 377 272 Z M 377 14.398438 "/>
</clipPath>
<clipPath id="clip10">
  <path d="M 2.492188 250 L 432 250 L 432 252 L 2.492188 252 Z M 2.492188 250 "/>
</clipPath>
<clipPath id="clip11">
  <path d="M 2.492188 189 L 432 189 L 432 191 L 2.492188 191 Z M 2.492188 189 "/>
</clipPath>
<clipPath id="clip12">
  <path d="M 2.492188 129 L 432 129 L 432 131 L 2.492188 131 Z M 2.492188 129 "/>
</clipPath>
<clipPath id="clip13">
  <path d="M 2.492188 68 L 432 68 L 432 70 L 2.492188 70 Z M 2.492188 68 "/>
</clipPath>
<clipPath id="clip14">
  <path d="M 20 14.398438 L 22 14.398438 L 22 272 L 20 272 Z M 20 14.398438 "/>
</clipPath>
<clipPath id="clip15">
  <path d="M 122 14.398438 L 124 14.398438 L 124 272 L 122 272 Z M 122 14.398438 "/>
</clipPath>
<clipPath id="clip16">
  <path d="M 224 14.398438 L 226 14.398438 L 226 272 L 224 272 Z M 224 14.398438 "/>
</clipPath>
<clipPath id="clip17">
  <path d="M 326 14.398438 L 328 14.398438 L 328 272 L 326 272 Z M 326 14.398438 "/>
</clipPath>
<clipPath id="clip18">
  <path d="M 428 14.398438 L 430 14.398438 L 430 272 L 428 272 Z M 428 14.398438 "/>
</clipPath>
</defs>
<g id="surface11">
<rect x="0" y="0" width="432" height="288" style="fill:rgb(100%,100%,100%);fill-opacity:1;stroke:none;"/>
<rect x="0" y="0" width="432" height="288" style="fill:rgb(100%,100%,100%);fill-opacity:1;stroke:none;"/>
<path style="fill:none;stroke-width:1.066978;stroke-linecap:round;stroke-linejoin:round;stroke:rgb(100%,100%,100%);stroke-opacity:1;stroke-miterlimit:10;" d="M 0 288 L 432 288 L 432 0 L 0 0 Z M 0 288 "/>
<g clip-path="url(#clip1)" clip-rule="nonzero">
<path style=" stroke:none;fill-rule:nonzero;fill:rgb(100%,100%,100%);fill-opacity:1;" d="M 2.492188 271.109375 L 432 271.109375 L 432 14.398438 L 2.492188 14.398438 Z M 2.492188 271.109375 "/>
</g>
<g clip-path="url(#clip2)" clip-rule="nonzero">
<path style="fill:none;stroke-width:0.533489;stroke-linecap:butt;stroke-linejoin:round;stroke:rgb(92.156863%,92.156863%,92.156863%);stroke-opacity:1;stroke-miterlimit:10;" d="M 2.492188 220.648438 L 432 220.648438 "/>
</g>
<g clip-path="url(#clip3)" clip-rule="nonzero">
<path style="fill:none;stroke-width:0.533489;stroke-linecap:butt;stroke-linejoin:round;stroke:rgb(92.156863%,92.156863%,92.156863%);stroke-opacity:1;stroke-miterlimit:10;" d="M 2.492188 159.941406 L 432 159.941406 "/>
</g>
<g clip-path="url(#clip4)" clip-rule="nonzero">
<path style="fill:none;stroke-width:0.533489;stroke-linecap:butt;stroke-linejoin:round;stroke:rgb(92.156863%,92.156863%,92.156863%);stroke-opacity:1;stroke-miterlimit:10;" d="M 2.492188 99.234375 L 432 99.234375 "/>
</g>
<g clip-path="url(#clip5)" clip-rule="nonzero">
<path style="fill:none;stroke-width:0.533489;stroke-linecap:butt;stroke-linejoin:round;stroke:rgb(92.156863%,92.156863%,92.156863%);stroke-opacity:1;stroke-miterlimit:10;" d="M 2.492188 38.527344 L 432 38.527344 "/>
</g>
<g clip-path="url(#clip6)" clip-rule="nonzero">
<path style="fill:none;stroke-width:0.533489;stroke-linecap:butt;stroke-linejoin:round;stroke:rgb(92.156863%,92.156863%,92.156863%);stroke-opacity:1;stroke-miterlimit:10;" d="M 71.96875 271.109375 L 71.96875 14.398438 "/>
</g>
<g clip-path="url(#clip7)" clip-rule="nonzero">
<path style="fill:none;stroke-width:0.533489;stroke-linecap:butt;stroke-linejoin:round;stroke:rgb(92.156863%,92.156863%,92.156863%);stroke-opacity:1;stroke-miterlimit:10;" d="M 173.917969 271.109375 L 173.917969 14.398438 "/>
</g>
<g clip-path="url(#clip8)" clip-rule="nonzero">
<path style="fill:none;stroke-width:0.533489;stroke-linecap:butt;stroke-linejoin:round;stroke:rgb(92.156863%,92.156863%,92.156863%);stroke-opacity:1;stroke-miterlimit:10;" d="M 275.867188 271.109375 L 275.867188 14.398438 "/>
</g>
<g clip-path="url(#clip9)" clip-rule="nonzero">
<path style="fill:none;stroke-width:0.533489;stroke-linecap:butt;stroke-linejoin:round;stroke:rgb(92.156863%,92.156863%,92.156863%);stroke-opacity:1;stroke-miterlimit:10;" d="M 377.8125 271.109375 L 377.8125 14.398438 "/>
</g>
<g clip-path="url(#clip10)" clip-rule="nonzero">
<path style="fill:none;stroke-width:1.066978;stroke-linecap:butt;stroke-linejoin:round;stroke:rgb(92.156863%,92.156863%,92.156863%);stroke-opacity:1;stroke-miterlimit:10;" d="M 2.492188 251.003906 L 432 251.003906 "/>
</g>
<g clip-path="url(#clip11)" clip-rule="nonzero">
<path style="fill:none;stroke-width:1.066978;stroke-linecap:butt;stroke-linejoin:round;stroke:rgb(92.156863%,92.156863%,92.156863%);stroke-opacity:1;stroke-miterlimit:10;" d="M 2.492188 190.292969 L 432 190.292969 "/>
</g>
<g clip-path="url(#clip12)" clip-rule="nonzero">
<path style="fill:none;stroke-width:1.066978;stroke-linecap:butt;stroke-linejoin:round;stroke:rgb(92.156863%,92.156863%,92.156863%);stroke-opacity:1;stroke-miterlimit:10;" d="M 2.492188 129.585938 L 432 129.585938 "/>
</g>
<g clip-path="url(#clip13)" clip-rule="nonzero">
<path style="fill:none;stroke-width:1.066978;stroke-linecap:butt;stroke-linejoin:round;stroke:rgb(92.156863%,92.156863%,92.156863%);stroke-opacity:1;stroke-miterlimit:10;" d="M 2.492188 68.878906 L 432 68.878906 "/>
</g>
<g clip-path="url(#clip14)" clip-rule="nonzero">
<path style="fill:none;stroke-width:1.066978;stroke-linecap:butt;stroke-linejoin:round;stroke:rgb(92.156863%,92.156863%,92.156863%);stroke-opacity:1;stroke-miterlimit:10;" d="M 20.996094 271.109375 L 20.996094 14.398438 "/>
</g>
<g clip-path="url(#clip15)" clip-rule="nonzero">
<path style="fill:none;stroke-width:1.066978;stroke-linecap:butt;stroke-linejoin:round;stroke:rgb(92.156863%,92.156863%,92.156863%);stroke-opacity:1;stroke-miterlimit:10;" d="M 122.941406 271.109375 L 122.941406 14.398438 "/>
</g>
<g clip-path="url(#clip16)" clip-rule="nonzero">
<path style="fill:none;stroke-width:1.066978;stroke-linecap:butt;stroke-linejoin:round;stroke:rgb(92.156863%,92.156863%,92.156863%);stroke-opacity:1;stroke-miterlimit:10;" d="M 224.890625 271.109375 L 224.890625 14.398438 "/>
</g>
<g clip-path="url(#clip17)" clip-rule="nonzero">
<path style="fill:none;stroke-width:1.066978;stroke-linecap:butt;stroke-linejoin:round;stroke:rgb(92.156863%,92.156863%,92.156863%);stroke-opacity:1;stroke-miterlimit:10;" d="M 326.839844 271.109375 L 326.839844 14.398438 "/>
</g>
<g clip-path="url(#clip18)" clip-rule="nonzero">
<path style="fill:none;stroke-width:1.066978;stroke-linecap:butt;stroke-linejoin:round;stroke:rgb(92.156863%,92.156863%,92.156863%);stroke-opacity:1;stroke-miterlimit:10;" d="M 428.789062 271.109375 L 428.789062 14.398438 "/>
</g>
<path style="fill:none;stroke-width:1.066978;stroke-linecap:butt;stroke-linejoin:round;stroke:rgb(0%,0%,0%);stroke-opacity:1;stroke-miterlimit:1;" d="M 22.015625 223.539062 L 23.035156 229.683594 L 24.054688 223.71875 L 25.074219 217.503906 L 26.089844 220.054688 L 27.109375 222.917969 L 28.128906 225.164062 L 29.148438 228.417969 L 30.167969 229.742188 L 31.1875 234.78125 L 32.207031 234.453125 L 33.226562 224.582031 L 34.246094 194.554688 L 35.265625 160.355469 L 36.285156 117.203125 L 37.304688 86.738281 L 38.324219 63.683594 L 39.34375 56.324219 L 40.363281 46.613281 L 41.382812 41.003906 L 42.402344 40.492188 L 43.421875 37.214844 L 44.441406 36.195312 L 45.460938 33.136719 L 46.480469 33.910156 L 47.5 38.609375 L 48.519531 43.808594 L 49.539062 46.355469 L 50.558594 46.164062 L 51.578125 46.574219 L 52.597656 49.417969 L 53.617188 44.816406 L 54.636719 40.117188 L 55.65625 36.703125 L 56.675781 39.582031 L 57.695312 50.972656 L 58.714844 62.980469 L 59.734375 75.53125 L 60.753906 84.613281 L 61.773438 94.582031 L 62.792969 106.03125 L 63.8125 102.695312 L 64.832031 98.359375 L 65.851562 94.984375 L 66.871094 102.257812 L 67.890625 118.71875 L 68.910156 148.285156 L 69.929688 171.207031 L 70.949219 189.164062 L 71.96875 198.550781 L 72.988281 194.132812 L 74.007812 186.191406 L 75.027344 190.988281 L 76.046875 194.703125 L 77.066406 197.289062 L 78.085938 200.457031 L 79.105469 203.128906 L 80.125 210.644531 L 81.144531 209.574219 L 82.164062 201.648438 L 83.183594 177.726562 L 84.203125 146.195312 L 85.222656 105.023438 L 86.242188 77.195312 L 87.261719 57.625 L 88.28125 52.28125 L 89.300781 43.539062 L 90.320312 42.363281 L 91.339844 44.488281 L 92.359375 42.023438 L 93.378906 38.148438 L 94.398438 33.789062 L 95.417969 32.671875 L 96.4375 38.039062 L 97.457031 42.652344 L 98.476562 45.566406 L 99.496094 43.867188 L 100.515625 45.445312 L 101.535156 48.96875 L 102.554688 45.6875 L 103.574219 41.925781 L 104.59375 38.160156 L 105.613281 40.710938 L 106.632812 52.71875 L 107.652344 66.378906 L 108.671875 78.554688 L 109.691406 89.847656 L 110.710938 100.738281 L 111.730469 107.269531 L 112.746094 114.882812 L 113.765625 111.3125 L 114.785156 107.269531 L 115.804688 103.058594 L 116.824219 118.890625 L 117.84375 144.15625 L 118.863281 168.039062 L 119.882812 189.140625 L 120.902344 197.128906 L 121.921875 193.972656 L 122.941406 187.148438 L 123.960938 189.941406 L 124.980469 192.648438 L 126 197.128906 L 127.019531 199.046875 L 128.039062 203.625 L 129.058594 209.503906 L 130.078125 209.429688 L 131.097656 201.296875 L 132.117188 177.679688 L 133.136719 146.148438 L 134.15625 104.890625 L 135.175781 78.167969 L 136.195312 60.453125 L 137.214844 57.003906 L 138.234375 50.972656 L 139.253906 48.542969 L 140.273438 47.996094 L 141.292969 46.515625 L 142.3125 45.933594 L 143.332031 45.605469 L 144.351562 46.371094 L 145.371094 50.363281 L 146.390625 51.503906 L 147.410156 54.164062 L 148.429688 55.996094 L 149.449219 57.574219 L 150.46875 58.742188 L 151.488281 54.941406 L 152.507812 50.386719 L 153.527344 46.308594 L 154.546875 47.863281 L 155.566406 59.117188 L 156.585938 72.265625 L 157.605469 80.597656 L 158.625 90.320312 L 159.644531 98.84375 L 160.664062 111.691406 L 161.683594 105.828125 L 162.703125 99.234375 L 163.722656 98.1875 L 164.742188 106.3125 L 165.761719 121.863281 L 166.78125 145.308594 L 167.800781 169.570312 L 168.820312 189.179688 L 169.839844 197.433594 L 170.859375 193.765625 L 171.878906 189.335938 L 172.898438 191.460938 L 173.917969 197.824219 L 174.9375 202.328125 L 175.957031 203.492188 L 176.976562 206.601562 L 177.996094 211.398438 L 179.015625 211.140625 L 180.035156 204.015625 L 181.054688 178.140625 L 182.074219 148.429688 L 183.09375 106.808594 L 184.113281 76.613281 L 185.132812 58.9375 L 186.152344 53.15625 L 187.171875 45.214844 L 188.191406 43.441406 L 189.210938 43.550781 L 190.230469 38.28125 L 191.25 38.039062 L 192.269531 36.449219 L 193.289062 36.160156 L 194.308594 40.785156 L 195.328125 43.222656 L 196.347656 47.074219 L 197.367188 48.179688 L 198.386719 49.039062 L 199.40625 52.402344 L 200.421875 48.675781 L 201.441406 44.355469 L 202.460938 42.75 L 203.480469 46.585938 L 204.5 56.640625 L 205.519531 69.109375 L 206.539062 77.804688 L 207.558594 88.488281 L 208.578125 99.511719 L 209.597656 105.71875 L 210.617188 112.566406 L 211.636719 108.910156 L 212.65625 102.972656 L 213.675781 101.394531 L 214.695312 117.785156 L 215.714844 142.820312 L 216.734375 166.109375 L 217.753906 186.359375 L 218.773438 194.132812 L 219.792969 191.59375 L 220.8125 189.179688 L 221.832031 193.316406 L 222.851562 199.546875 L 223.871094 203.578125 L 224.890625 205.410156 L 225.910156 206.988281 L 226.929688 214.25 L 227.949219 213.398438 L 228.96875 206.175781 L 229.988281 178.929688 L 231.007812 147.789062 L 232.027344 107.269531 L 233.046875 77.28125 L 234.066406 53.035156 L 235.085938 47.71875 L 236.105469 36.035156 L 237.125 32.699219 L 238.144531 31.433594 L 239.164062 27.851562 L 240.183594 26.070312 L 241.203125 27.246094 L 242.222656 28.277344 L 243.242188 35.066406 L 244.261719 38.585938 L 245.28125 42.289062 L 246.300781 44.476562 L 247.320312 48.957031 L 248.339844 53.144531 L 249.359375 52.988281 L 250.378906 50.277344 L 251.398438 48.699219 L 252.417969 53.957031 L 253.4375 64.980469 L 254.457031 76.054688 L 255.476562 88.003906 L 256.496094 96.707031 L 257.515625 111.859375 L 258.535156 117.992188 L 259.554688 126.261719 L 260.574219 125.921875 L 261.59375 124.402344 L 262.613281 127.71875 L 263.632812 137.953125 L 264.652344 157.523438 L 265.671875 175.566406 L 266.691406 193.257812 L 267.710938 204.292969 L 268.730469 203.445312 L 269.75 202.570312 L 270.769531 207.839844 L 271.789062 214.261719 L 272.808594 218.609375 L 273.828125 221.242188 L 274.847656 227.097656 L 275.867188 236.285156 L 276.886719 239.128906 L 277.90625 236.980469 L 278.925781 222.226562 L 279.945312 208.058594 L 280.964844 187.746094 L 281.984375 166.484375 L 283.003906 144.519531 L 284.023438 130.621094 L 285.042969 118.71875 L 286.0625 114.132812 L 287.082031 112.710938 L 288.097656 113.960938 L 289.117188 115.464844 L 290.136719 119.742188 L 291.15625 125.824219 L 292.175781 132.417969 L 293.195312 141.535156 L 294.214844 149.328125 L 295.234375 153.09375 L 296.253906 158.738281 L 297.273438 161.90625 L 298.292969 164.117188 L 299.3125 161.703125 L 300.332031 155.570312 L 301.351562 150.046875 L 302.371094 149.0625 L 303.390625 154.695312 L 304.410156 156.589844 L 305.429688 159.699219 L 306.449219 165.695312 L 307.46875 170.273438 L 308.488281 173.988281 L 309.507812 172.242188 L 310.527344 163.351562 L 311.546875 161.347656 L 312.566406 169.898438 L 313.585938 182.304688 L 314.605469 199.304688 L 315.625 216.230469 L 316.644531 226.742188 L 317.664062 224.714844 L 318.683594 222.980469 L 319.703125 228.382812 L 320.722656 233.53125 L 321.742188 238.046875 L 322.761719 241.519531 L 323.78125 246.28125 L 324.800781 255.09375 L 325.820312 259.441406 L 326.839844 258.164062 L 327.859375 250.042969 L 328.878906 242.492188 L 329.898438 231.101562 L 330.917969 217.953125 L 331.9375 201.878906 L 332.957031 188.472656 L 333.976562 174.691406 L 334.996094 160.914062 L 336.015625 148.550781 L 337.035156 144.519531 L 338.054688 137.976562 L 339.074219 134.613281 L 340.09375 132.976562 L 341.113281 134.46875 L 342.132812 144.449219 L 343.152344 153.773438 L 344.171875 160.097656 L 345.191406 162.710938 L 346.210938 164.90625 L 347.230469 164.117188 L 348.25 163.703125 L 349.269531 160.414062 L 350.289062 157.246094 L 351.308594 158.933594 L 352.328125 159.03125 L 353.347656 159.796875 L 354.367188 158.691406 L 355.386719 164.128906 L 356.40625 162.976562 L 357.425781 163.582031 L 358.445312 156.324219 L 359.464844 147.957031 L 360.484375 145.480469 L 361.503906 162.855469 L 362.523438 185.789062 "/>
<path style="fill:none;stroke-width:1.066978;stroke-linecap:butt;stroke-linejoin:round;stroke:rgb(0%,0%,100%);stroke-opacity:1;stroke-miterlimit:1;" d="M 363.542969 206.210938 L 364.5625 221.207031 L 365.582031 228.929688 L 366.601562 226.695312 L 367.621094 220.453125 L 368.640625 223.175781 L 369.660156 227.507812 L 370.679688 230.566406 L 371.699219 230.894531 L 372.71875 233.019531 L 373.738281 237.160156 L 374.757812 235.121094 L 375.773438 225.042969 L 376.792969 193.949219 L 377.8125 161.566406 L 378.832031 117.773438 L 379.851562 87.128906 L 380.871094 66.546875 L 381.890625 61.304688 L 382.910156 51.347656 L 383.929688 45.773438 L 384.949219 45.277344 L 385.96875 41.890625 L 386.988281 40.40625 L 388.007812 35.976562 L 389.027344 36.8125 L 390.046875 39.847656 L 391.066406 43.1875 L 392.085938 44.390625 L 393.105469 44.304688 L 394.125 46.027344 L 395.144531 49.390625 L 396.164062 46.285156 L 397.183594 41.671875 L 398.203125 37.917969 L 399.222656 41.984375 L 400.242188 54.273438 L 401.261719 68.453125 L 402.28125 79.660156 L 403.300781 87.308594 L 404.320312 101.066406 L 405.339844 115.1875 L 406.359375 118.417969 L 407.378906 126.308594 L 408.398438 106.894531 L 409.417969 109.542969 L 410.4375 119.617188 L 411.457031 147.460938 L 412.476562 169.957031 "/>
</g>
</svg>
