<?xml version="1.0" encoding="UTF-8" standalone="no"?>
<!-- Created with Inkscape (http://www.inkscape.org/) -->
<svg xmlns:svg="http://www.w3.org/2000/svg" xmlns="http://www.w3.org/2000/svg" version="1.1" width="525.21344" height="328.79877" id="svg2822">
  <defs id="defs2824"/>
  <g transform="translate(-107.87954,-127.32392)" id="layer1">
    <path d="m 630.59297,451.01619 c -171.48044,0 -334.42085,0 -515.42857,0" id="path3598" style="fill:none;stroke:#000000;stroke-width:5;stroke-linecap:butt;stroke-linejoin:miter;stroke-miterlimit:4;stroke-opacity:1;stroke-dasharray:none;marker-start:none"/>
    <path d="m 117.28572,410.93361 c 26.98588,-21.58411 43.82423,-41.50412 114.28572,-62.85714 57.91226,-9.09149 49.00557,-18.77937 122.85714,-42.85714 31.92291,10.57872 2.33638,22.27839 48.28571,52.14286" id="path3782" style="fill:none;stroke:#df0000;stroke-width:3;stroke-linecap:butt;stroke-linejoin:miter;stroke-miterlimit:4;stroke-opacity:1;stroke-dasharray:none"/>
    <path d="m 110.18794,129.63232 6.83878,324.18196" id="path2822" style="fill:#241c1c;fill-opacity:1;stroke:#000000;stroke-width:4.61680746;stroke-linecap:butt;stroke-linejoin:miter;stroke-miterlimit:4;stroke-opacity:1;stroke-dasharray:none"/>
    <path d="m 597.44293,187.44797 -55,26 c -18.33333,4.5964 -33.66667,35.42404 -38,50 -8.57058,9.84968 -6.39224,18.39173 -16,36 -5.30925,11.45247 3.58103,12.63812 -32,44 -13.42166,9.86267 -39.44749,8.84201 -53,13" id="path3790" style="fill:none;stroke:#130fd9;stroke-width:2;stroke-linecap:butt;stroke-linejoin:miter;stroke-miterlimit:4;stroke-opacity:1;stroke-dasharray:none"/>
    <path d="m 401.71428,357.02598 c 42.17685,2.02644 77.63663,-7.50484 103,-20 28.94067,-11.97696 57.55822,-24.37234 87,-41 l 16,-10" id="path3788" style="fill:none;stroke:#00b500;stroke-width:2;stroke-linecap:butt;stroke-linejoin:miter;stroke-miterlimit:4;stroke-opacity:1;stroke-dasharray:none"/>
    <path d="M 114.94919,408.23423 599.33652,183.5612" id="path3786" style="fill:none;stroke:#000000;stroke-width:2.46981549;stroke-linecap:butt;stroke-linejoin:miter;stroke-miterlimit:4;stroke-opacity:1;stroke-dasharray:4.93963098, 9.87926195;stroke-dashoffset:0"/>
  </g>
</svg>